<svg width="380" height="400" xmlns="http://www.w3.org/2000/svg"><g fill="none" fill-rule="evenodd"><path d="M195.7 89.5A27 27 0 00203 70c-1.5-21.4-31.2-16.7-37-5.9-5.8 10.8-5.1 38.2 2.3 40.2 3 .7 9.4-1.2 15.9-5L180 128h24l-8.3-38.5z" fill="#B28B67"/><path d="M179.5 51.7c3.2-.5 11.7-.9 13.3-.9 1 0 2 .2 2.7-.7.5-.7.3-2 .4-2.9a42.3 42.3 0 013.9-11.1 25 25 0 0111.8-10.7 38 38 0 0118-2.5c6.4.5 12.2 2.7 18.3 4.7 5.8 1.9 11.8 2.6 17.9 1.7 6-1 10.7-4.3 15.8-7.4a29.6 29.6 0 0117.6-4.8c5.8.4 11.1 2.8 16 6a26 26 0 0110.3 11.7c2.2 5.5 2.2 11.5-1.5 16.3-5.4 7-15.3 8.8-23.7 8.7-4.8-.1-9.5-1-14-2.6-6-2.1-11.3-5.7-17-8.7a44 44 0 00-8.2-3.3c-2.8-.8-5.5-1.1-8 .6-2.7 1.7-5.1 3.5-8.2 4.6-3 1-6 1.7-9.2 1.7-6-.1-12-2-18-3.3-4.8-1-10-2-14.8-1-2 .4-5 1.2-5.8 3.4 12.5 2.2 17.3 17.6 13.8 29-1.9 6-13.2 13.2-17.7 10-2.8-2-1-4.7 0-6.5 2.1-3.4 2.9-7.7-1-10-3.4-2-7 2.7-7 2.7-1 0-9-4.6-14.5-11.2-5.4.3-6.2-3.2-5-6.2 1.4-3 9.5-6.6 13.8-7.3z" fill="#191847"/><ellipse cx="116" cy="58.5" rx="77" ry="73.5" transform="matrix(-1 0 0 1 330 253)" fill="#C5CFD6"/><path d="M68.5 373.7c12.8-28.4 22-53 25.8-66.1 6.4-22.3 11.2-42 12.4-49.3 3-17.5-22.4-18.5-25.8-9.8-5 13.2-14 56.4-24.6 121.6l12.2 3.6zm148.6-89c-11.7-4.7-53-19.2-72.8-23.3L128 258c-15.5-3-23.5 25-8.6 27 37 5.4 89.6 10.9 94.1 11.5 6.3.9 11.1-9 3.7-12z" fill="#B28B67"/><path d="M118.4 250.4L182 218v-7h-7.6c-61.5 15.7-93 25.7-94.3 30.1v.2l-.1.1C67.8 258.2 60.5 340 58.1 346.2l23.4 3.4c9-33.1 37.5-56.2 36.7-95.9.2-1.1.3-2.2.2-3.3z" fill="#1F28CF"/><path d="M176.7 269.6a696 696 0 0115.8-3c29.6-5.2 38.2-21 33.1-55.6h-54.5c-9 2.6-55.3 22-79.3 32.3-16 6.9-10.9 31.5-1.9 38 0 .3.2.6.5.7 48.5 20 86.8 9.5 99.6 13l6-18.8-19.3-6.6z" fill="#2B44FF"/><path d="M213 281.7c3.3.3 5.5.8 6.9 1.4 1.6.8 3.8 2.2 6.7 4.3L201.8 338c-5-.8-7-2.7-6-5.7l2.6-7.6 1-28.7a1 1 0 011-1l4.5.4a18 18 0 005-5.5c.6-1.4 1-3.5 1-6.4a2 2 0 012.2-2zM74.3 368.4c1.1 3 1.7 5.2 1.7 6.7 0 1.8-.3 4.4-.9 7.9H18.7c-1.5-4.8-.6-7.5 2.5-7.8l7.9-1 26.2-11.8a1 1 0 011.4.6l1.6 4c3 1.4 5.3 2 7.2 2 1.4 0 3.5-.5 6.1-1.7a2 2 0 012.7 1.1z" fill="#E4E4E4"/><g><path d="M120 183.6l-36.2-15.9a85.9 85.9 0 00-18.4-14.4c-1.8-.6-4.8-.8-1.6 4 3.2 4.7 6.4 9.8 5.1 11.4-1.3 1.7-5-.2-6.5 2.5-1 1.8 5.3 4 18.9 6.4l27.1 20.8 11.6-14.8zm146.5 4.4l-20.5 4c20.6 38.5 31.7 58.8 33.2 61.1 3.3 5.2.2 14.7-1 19.7 7.3 1.7 4.4-9.2 13.6-7 8.4 2.1 15.6 7.5 23.4.3 1-1 1.7-3.7-1.6-5.1a94.6 94.6 0 01-22.3-12.8c-2.6-3.5-11-23.6-24.8-60.2z" fill="#B28B67"/><path d="M190.3 111.3l-8.6-1.5c-18.9 18.3-26.6 62.2-39.1 68-11.9 5.5-28.7.2-48.7-7l-6.1 13.7c18.1 19.7 56.9 36.3 72.5 26.8 25.1-15.2 31-69.3 30-100z" fill="#DB2721"/><path d="M228 220h-76.5c-3.5 0-2.8-5-2.3-7.6 5.8-29.4 28.6-61 28.6-103l22-3.4c18.3 29.4 24.6 65.5 28.2 114z" fill="#DDE3E9"/><path d="M235.6 190.2A388.1 388.1 0 00275 251l16-3.1c-10.3-64.1-40.2-111.4-89.7-141.9h-8.8c-19.8 67.5-25.3 112.5-16.4 135H245c-1-16.4-4.6-33.8-9.4-50.8z" fill="#FF4133"/></g></g></svg>